<svg id="visual" viewBox="0 0 900 600" width="900" height="600" xmlns="http://www.w3.org/2000/svg" xmlns:xlink="http://www.w3.org/1999/xlink" version="1.1"><rect x="0" y="0" width="900" height="600" fill="#001220"></rect><defs><linearGradient id="grad1_0" x1="33.3%" y1="0%" x2="100%" y2="100%"><stop offset="20%" stop-color="#c62368" stop-opacity="1"></stop><stop offset="80%" stop-color="#c62368" stop-opacity="1"></stop></linearGradient></defs><defs><linearGradient id="grad1_1" x1="33.3%" y1="0%" x2="100%" y2="100%"><stop offset="20%" stop-color="#c62368" stop-opacity="1"></stop><stop offset="80%" stop-color="#8a2b72" stop-opacity="1"></stop></linearGradient></defs><defs><linearGradient id="grad1_2" x1="33.3%" y1="0%" x2="100%" y2="100%"><stop offset="20%" stop-color="#4b2d66" stop-opacity="1"></stop><stop offset="80%" stop-color="#8a2b72" stop-opacity="1"></stop></linearGradient></defs><defs><linearGradient id="grad1_3" x1="33.3%" y1="0%" x2="100%" y2="100%"><stop offset="20%" stop-color="#4b2d66" stop-opacity="1"></stop><stop offset="80%" stop-color="#172447" stop-opacity="1"></stop></linearGradient></defs><defs><linearGradient id="grad1_4" x1="33.3%" y1="0%" x2="100%" y2="100%"><stop offset="20%" stop-color="#001220" stop-opacity="1"></stop><stop offset="80%" stop-color="#172447" stop-opacity="1"></stop></linearGradient></defs><defs><linearGradient id="grad2_0" x1="0%" y1="0%" x2="66.7%" y2="100%"><stop offset="20%" stop-color="#c62368" stop-opacity="1"></stop><stop offset="80%" stop-color="#c62368" stop-opacity="1"></stop></linearGradient></defs><defs><linearGradient id="grad2_1" x1="0%" y1="0%" x2="66.7%" y2="100%"><stop offset="20%" stop-color="#8a2b72" stop-opacity="1"></stop><stop offset="80%" stop-color="#c62368" stop-opacity="1"></stop></linearGradient></defs><defs><linearGradient id="grad2_2" x1="0%" y1="0%" x2="66.7%" y2="100%"><stop offset="20%" stop-color="#8a2b72" stop-opacity="1"></stop><stop offset="80%" stop-color="#4b2d66" stop-opacity="1"></stop></linearGradient></defs><defs><linearGradient id="grad2_3" x1="0%" y1="0%" x2="66.7%" y2="100%"><stop offset="20%" stop-color="#172447" stop-opacity="1"></stop><stop offset="80%" stop-color="#4b2d66" stop-opacity="1"></stop></linearGradient></defs><defs><linearGradient id="grad2_4" x1="0%" y1="0%" x2="66.7%" y2="100%"><stop offset="20%" stop-color="#172447" stop-opacity="1"></stop><stop offset="80%" stop-color="#001220" stop-opacity="1"></stop></linearGradient></defs><g transform="translate(900, 0)"><path d="M0 432.7C-58.1 420.4 -116.1 408.1 -156.1 376.9C-196.1 345.8 -218.1 295.7 -260.9 260.9C-303.8 226.1 -367.6 206.5 -399.7 165.6C-431.8 124.6 -432.3 62.3 -432.7 0L0 0Z" fill="#061c33"></path><path d="M0 346.1C-46.5 336.3 -92.9 326.5 -124.9 301.6C-156.9 276.6 -174.4 236.6 -208.7 208.7C-243 180.9 -294.1 165.2 -319.8 132.5C-345.5 99.7 -345.8 49.9 -346.1 0L0 0Z" fill="#2f2958"></path><path d="M0 259.6C-34.8 252.2 -69.7 244.9 -93.7 226.2C-117.7 207.5 -130.8 177.4 -156.6 156.6C-182.3 135.7 -220.6 123.9 -239.8 99.3C-259.1 74.8 -259.4 37.4 -259.6 0L0 0Z" fill="#6a2d6f"></path><path d="M0 173.1C-23.2 168.2 -46.5 163.2 -62.5 150.8C-78.5 138.3 -87.2 118.3 -104.4 104.4C-121.5 90.4 -147 82.6 -159.9 66.2C-172.7 49.9 -172.9 24.9 -173.1 0L0 0Z" fill="#a92670"></path><path d="M0 86.5C-11.6 84.1 -23.2 81.6 -31.2 75.4C-39.2 69.2 -43.6 59.1 -52.2 52.2C-60.8 45.2 -73.5 41.3 -79.9 33.1C-86.4 24.9 -86.5 12.5 -86.5 0L0 0Z" fill="#c62368"></path></g><g transform="translate(0, 600)"><path d="M0 -432.7C59.3 -426.6 118.7 -420.5 162.6 -392.6C206.6 -364.8 235.2 -315.2 276.5 -276.5C317.7 -237.7 371.6 -209.8 399.7 -165.6C427.9 -121.3 430.3 -60.7 432.7 0L0 0Z" fill="#061c33"></path><path d="M0 -346.1C47.5 -341.3 94.9 -336.4 130.1 -314.1C165.3 -291.8 188.2 -252.2 221.2 -221.2C254.2 -190.2 297.3 -167.9 319.8 -132.5C342.3 -97 344.2 -48.5 346.1 0L0 0Z" fill="#2f2958"></path><path d="M0 -259.6C35.6 -255.9 71.2 -252.3 97.6 -235.6C124 -218.9 141.1 -189.1 165.9 -165.9C190.6 -142.6 223 -125.9 239.8 -99.3C256.7 -72.8 258.2 -36.4 259.6 0L0 0Z" fill="#6a2d6f"></path><path d="M0 -173.1C23.7 -170.6 47.5 -168.2 65.1 -157.1C82.6 -145.9 94.1 -126.1 110.6 -110.6C127.1 -95.1 148.6 -83.9 159.9 -66.2C171.1 -48.5 172.1 -24.3 173.1 0L0 0Z" fill="#a92670"></path><path d="M0 -86.5C11.9 -85.3 23.7 -84.1 32.5 -78.5C41.3 -73 47 -63 55.3 -55.3C63.5 -47.5 74.3 -42 79.9 -33.1C85.6 -24.3 86.1 -12.1 86.5 0L0 0Z" fill="#c62368"></path></g></svg>