<svg id="visual" viewBox="0 0 900 600" width="900" height="600" xmlns="http://www.w3.org/2000/svg" xmlns:xlink="http://www.w3.org/1999/xlink" version="1.1"><rect x="0" y="0" width="900" height="600" fill="#272a32"></rect><defs><linearGradient id="grad1_0" x1="33.3%" y1="0%" x2="100%" y2="100%"><stop offset="20%" stop-color="#c62368" stop-opacity="1"></stop><stop offset="80%" stop-color="#c62368" stop-opacity="1"></stop></linearGradient></defs><defs><linearGradient id="grad1_1" x1="33.3%" y1="0%" x2="100%" y2="100%"><stop offset="20%" stop-color="#c62368" stop-opacity="1"></stop><stop offset="80%" stop-color="#943374" stop-opacity="1"></stop></linearGradient></defs><defs><linearGradient id="grad1_2" x1="33.3%" y1="0%" x2="100%" y2="100%"><stop offset="20%" stop-color="#61396c" stop-opacity="1"></stop><stop offset="80%" stop-color="#943374" stop-opacity="1"></stop></linearGradient></defs><defs><linearGradient id="grad1_3" x1="33.3%" y1="0%" x2="100%" y2="100%"><stop offset="20%" stop-color="#61396c" stop-opacity="1"></stop><stop offset="80%" stop-color="#3a3554" stop-opacity="1"></stop></linearGradient></defs><defs><linearGradient id="grad1_4" x1="33.3%" y1="0%" x2="100%" y2="100%"><stop offset="20%" stop-color="#272a32" stop-opacity="1"></stop><stop offset="80%" stop-color="#3a3554" stop-opacity="1"></stop></linearGradient></defs><defs><linearGradient id="grad2_0" x1="0%" y1="0%" x2="66.7%" y2="100%"><stop offset="20%" stop-color="#c62368" stop-opacity="1"></stop><stop offset="80%" stop-color="#c62368" stop-opacity="1"></stop></linearGradient></defs><defs><linearGradient id="grad2_1" x1="0%" y1="0%" x2="66.7%" y2="100%"><stop offset="20%" stop-color="#943374" stop-opacity="1"></stop><stop offset="80%" stop-color="#c62368" stop-opacity="1"></stop></linearGradient></defs><defs><linearGradient id="grad2_2" x1="0%" y1="0%" x2="66.7%" y2="100%"><stop offset="20%" stop-color="#943374" stop-opacity="1"></stop><stop offset="80%" stop-color="#61396c" stop-opacity="1"></stop></linearGradient></defs><defs><linearGradient id="grad2_3" x1="0%" y1="0%" x2="66.7%" y2="100%"><stop offset="20%" stop-color="#3a3554" stop-opacity="1"></stop><stop offset="80%" stop-color="#61396c" stop-opacity="1"></stop></linearGradient></defs><defs><linearGradient id="grad2_4" x1="0%" y1="0%" x2="66.7%" y2="100%"><stop offset="20%" stop-color="#3a3554" stop-opacity="1"></stop><stop offset="80%" stop-color="#272a32" stop-opacity="1"></stop></linearGradient></defs><g transform="translate(900, 0)"><path d="M0 270.4C-24.2 239.4 -48.5 208.4 -82.7 199.6C-116.9 190.7 -161 204.1 -191.2 191.2C-221.4 178.3 -237.6 139.2 -248.5 102.9C-259.4 66.7 -264.9 33.3 -270.4 0L0 0Z" fill="#2e3044"></path><path d="M0 216.3C-19.4 191.5 -38.8 166.7 -66.1 159.6C-93.5 152.6 -128.8 163.3 -153 153C-177.1 142.7 -190.1 111.3 -198.8 82.4C-207.5 53.4 -211.9 26.7 -216.3 0L0 0Z" fill="#4b3862"></path><path d="M0 162.2C-14.5 143.6 -29.1 125 -49.6 119.7C-70.1 114.4 -96.6 122.5 -114.7 114.7C-132.8 107 -142.6 83.5 -149.1 61.8C-155.6 40 -158.9 20 -162.2 0L0 0Z" fill="#7a3773"></path><path d="M0 108.2C-9.7 95.8 -19.4 83.4 -33.1 79.8C-46.7 76.3 -64.4 81.6 -76.5 76.5C-88.6 71.3 -95.1 55.7 -99.4 41.2C-103.8 26.7 -106 13.3 -108.2 0L0 0Z" fill="#ae2c70"></path><path d="M0 54.1C-4.8 47.9 -9.7 41.7 -16.5 39.9C-23.4 38.1 -32.2 40.8 -38.2 38.2C-44.3 35.7 -47.5 27.8 -49.7 20.6C-51.9 13.3 -53 6.7 -54.1 0L0 0Z" fill="#c62368"></path></g><g transform="translate(0, 600)"><path d="M0 -270.4C38.4 -270 76.8 -269.6 103.5 -249.8C130.2 -230 145.2 -190.8 161.9 -161.9C178.6 -133 196.9 -114.4 215.3 -89.2C233.6 -63.9 252 -31.9 270.4 0L0 0Z" fill="#2e3044"></path><path d="M0 -216.3C30.7 -216 61.4 -215.7 82.8 -199.9C104.2 -184 116.2 -152.7 129.5 -129.5C142.9 -106.4 157.5 -91.5 172.2 -71.3C186.9 -51.1 201.6 -25.6 216.3 0L0 0Z" fill="#4b3862"></path><path d="M0 -162.2C23 -162 46.1 -161.8 62.1 -149.9C78.1 -138 87.1 -114.5 97.2 -97.2C107.2 -79.8 118.1 -68.7 129.2 -53.5C140.2 -38.3 151.2 -19.2 162.2 0L0 0Z" fill="#7a3773"></path><path d="M0 -108.2C15.4 -108 30.7 -107.9 41.4 -99.9C52.1 -92 58.1 -76.3 64.8 -64.8C71.4 -53.2 78.8 -45.8 86.1 -35.7C93.4 -25.6 100.8 -12.8 108.2 0L0 0Z" fill="#ae2c70"></path><path d="M0 -54.1C7.7 -54 15.4 -53.9 20.7 -50C26 -46 29 -38.2 32.4 -32.4C35.7 -26.6 39.4 -22.9 43.1 -17.8C46.7 -12.8 50.4 -6.4 54.1 0L0 0Z" fill="#c62368"></path></g></svg>