<svg id="visual" viewBox="0 0 900 600" width="900" height="600" xmlns="http://www.w3.org/2000/svg" xmlns:xlink="http://www.w3.org/1999/xlink" version="1.1"><rect x="0" y="0" width="900" height="600" fill="#ffffff"></rect><defs><linearGradient id="grad1_0" x1="33.3%" y1="0%" x2="100%" y2="100%"><stop offset="20%" stop-color="#7e22ce" stop-opacity="1"></stop><stop offset="80%" stop-color="#7e22ce" stop-opacity="1"></stop></linearGradient></defs><defs><linearGradient id="grad1_1" x1="33.3%" y1="0%" x2="100%" y2="100%"><stop offset="20%" stop-color="#7e22ce" stop-opacity="1"></stop><stop offset="80%" stop-color="#a460dc" stop-opacity="1"></stop></linearGradient></defs><defs><linearGradient id="grad1_2" x1="33.3%" y1="0%" x2="100%" y2="100%"><stop offset="20%" stop-color="#c595e8" stop-opacity="1"></stop><stop offset="80%" stop-color="#a460dc" stop-opacity="1"></stop></linearGradient></defs><defs><linearGradient id="grad1_3" x1="33.3%" y1="0%" x2="100%" y2="100%"><stop offset="20%" stop-color="#c595e8" stop-opacity="1"></stop><stop offset="80%" stop-color="#e3caf4" stop-opacity="1"></stop></linearGradient></defs><defs><linearGradient id="grad1_4" x1="33.3%" y1="0%" x2="100%" y2="100%"><stop offset="20%" stop-color="#ffffff" stop-opacity="1"></stop><stop offset="80%" stop-color="#e3caf4" stop-opacity="1"></stop></linearGradient></defs><defs><linearGradient id="grad2_0" x1="0%" y1="0%" x2="66.7%" y2="100%"><stop offset="20%" stop-color="#7e22ce" stop-opacity="1"></stop><stop offset="80%" stop-color="#7e22ce" stop-opacity="1"></stop></linearGradient></defs><defs><linearGradient id="grad2_1" x1="0%" y1="0%" x2="66.7%" y2="100%"><stop offset="20%" stop-color="#a460dc" stop-opacity="1"></stop><stop offset="80%" stop-color="#7e22ce" stop-opacity="1"></stop></linearGradient></defs><defs><linearGradient id="grad2_2" x1="0%" y1="0%" x2="66.7%" y2="100%"><stop offset="20%" stop-color="#a460dc" stop-opacity="1"></stop><stop offset="80%" stop-color="#c595e8" stop-opacity="1"></stop></linearGradient></defs><defs><linearGradient id="grad2_3" x1="0%" y1="0%" x2="66.7%" y2="100%"><stop offset="20%" stop-color="#e3caf4" stop-opacity="1"></stop><stop offset="80%" stop-color="#c595e8" stop-opacity="1"></stop></linearGradient></defs><defs><linearGradient id="grad2_4" x1="0%" y1="0%" x2="66.7%" y2="100%"><stop offset="20%" stop-color="#e3caf4" stop-opacity="1"></stop><stop offset="80%" stop-color="#ffffff" stop-opacity="1"></stop></linearGradient></defs><g transform="translate(900, 0)"><path d="M0 459.7C-67.5 460.1 -135 460.5 -175.9 424.7C-216.9 388.9 -231.2 317 -273.7 273.7C-316.1 230.3 -386.5 215.7 -422.2 174.9C-457.9 134.1 -458.8 67 -459.7 0L0 0Z" fill="#f1e4fa"></path><path d="M0 367.8C-54 368.1 -108 368.4 -140.7 339.8C-173.5 311.1 -185 253.6 -218.9 218.9C-252.9 184.3 -309.2 172.6 -337.8 139.9C-366.3 107.2 -367 53.6 -367.8 0L0 0Z" fill="#d5afee"></path><path d="M0 275.8C-40.5 276.1 -81 276.3 -105.6 254.8C-130.1 233.4 -138.7 190.2 -164.2 164.2C-189.6 138.2 -231.9 129.4 -253.3 104.9C-274.7 80.4 -275.3 40.2 -275.8 0L0 0Z" fill="#b57be2"></path><path d="M0 183.9C-27 184 -54 184.2 -70.4 169.9C-86.7 155.6 -92.5 126.8 -109.5 109.5C-126.4 92.1 -154.6 86.3 -168.9 70C-183.2 53.6 -183.5 26.8 -183.9 0L0 0Z" fill="#9244d5"></path><path d="M0 91.9C-13.5 92 -27 92.1 -35.2 84.9C-43.4 77.8 -46.2 63.4 -54.7 54.7C-63.2 46.1 -77.3 43.1 -84.4 35C-91.6 26.8 -91.8 13.4 -91.9 0L0 0Z" fill="#7e22ce"></path></g><g transform="translate(0, 600)"><path d="M0 -459.7C60.2 -447.3 120.4 -435 168.8 -407.4C217.1 -379.9 253.6 -337.1 298.4 -298.4C343.2 -259.7 396.4 -225 424.7 -175.9C453 -126.9 456.4 -63.4 459.7 0L0 0Z" fill="#f1e4fa"></path><path d="M0 -367.8C48.2 -357.9 96.3 -348 135 -325.9C173.7 -303.9 202.9 -269.7 238.7 -238.7C274.6 -207.7 317.1 -180 339.8 -140.7C362.4 -101.5 365.1 -50.7 367.8 0L0 0Z" fill="#d5afee"></path><path d="M0 -275.8C36.1 -268.4 72.3 -261 101.3 -244.5C130.3 -227.9 152.1 -202.3 179 -179C205.9 -155.8 237.9 -135 254.8 -105.6C271.8 -76.1 273.8 -38.1 275.8 0L0 0Z" fill="#b57be2"></path><path d="M0 -183.9C24.1 -178.9 48.2 -174 67.5 -163C86.8 -151.9 101.4 -134.8 119.4 -119.4C137.3 -103.9 158.6 -90 169.9 -70.4C181.2 -50.7 182.5 -25.4 183.9 0L0 0Z" fill="#9244d5"></path><path d="M0 -91.9C12 -89.5 24.1 -87 33.8 -81.5C43.4 -76 50.7 -67.4 59.7 -59.7C68.6 -51.9 79.3 -45 84.9 -35.2C90.6 -25.4 91.3 -12.7 91.9 0L0 0Z" fill="#7e22ce"></path></g></svg>