<svg id="visual" viewBox="0 0 900 600" width="900" height="600" xmlns="http://www.w3.org/2000/svg" xmlns:xlink="http://www.w3.org/1999/xlink" version="1.1">
  <path d="M0 187L25 194.8C50 202.7 100 218.3 150 220.3C200 222.3 250 210.7 300 210.7C350 210.7 400 222.3 450 228.7C500 235 550 236 600 245.8C650 255.7 700 274.3 750 277C800 279.7 850 266.3 875 259.7L900 253L900 601L875 601C850 601 800 601 750 601C700 601 650 601 600 601C550 601 500 601 450 601C400 601 350 601 300 601C250 601 200 601 150 601C100 601 50 601 25 601L0 601Z" fill="#c62368" opacity="0.3"></path>
  <path d="M0 321L25 331.7C50 342.3 100 363.7 150 360.7C200 357.7 250 330.3 300 314.3C350 298.3 400 293.7 450 295.5C500 297.3 550 305.7 600 326C650 346.3 700 378.7 750 383.5C800 388.3 850 365.7 875 354.3L900 343L900 601L875 601C850 601 800 601 750 601C700 601 650 601 600 601C550 601 500 601 450 601C400 601 350 601 300 601C250 601 200 601 150 601C100 601 50 601 25 601L0 601Z" fill="#c62368" opacity="0.6"></path>
  <path d="M0 496L25 490C50 484 100 472 150 460C200 448 250 436 300 441.8C350 447.7 400 471.3 450 476.2C500 481 550 467 600 457C650 447 700 441 750 437.5C800 434 850 433 875 432.5L900 432L900 601L875 601C850 601 800 601 750 601C700 601 650 601 600 601C550 601 500 601 450 601C400 601 350 601 300 601C250 601 200 601 150 601C100 601 50 601 25 601L0 601Z" fill="#c62368" opacity="1"></path>
</svg>
